<svg xmlns="http://www.w3.org/2000/svg" viewBox="0 0 530.08 254.01"><defs><style>.cls-1,.cls-3{fill:#fcfcfc;}.cls-2{fill:#fdb813;}.cls-3{font-size:24.15px;font-family:Poppins-SemiBold, Poppins;font-weight:600;}</style></defs><title>Fichier 34logo TWISH CART</title><g id="Calque_2" data-name="Calque 2"><g id="Calque_1-2" data-name="Calque 1"><ellipse class="cls-1" cx="97.92" cy="187.61" rx="20.79" ry="19.71" transform="translate(-90.08 284.77) rotate(-89.77)"/><ellipse class="cls-1" cx="189.08" cy="187.11" rx="20.79" ry="19.71" transform="translate(1.2 375.42) rotate(-89.77)"/><path class="cls-1" d="M138.41,163.11c-61.29,0-84.72-66-89.25-105.43-6.62-2.21-22.29,1.78-34.26,7.79A10.27,10.27,0,0,1,5.64,47.13C12.77,43.52,49.22,26.47,66.46,45l2.43,2.62.29,3.56c.31,3.82,8.48,93.62,71.65,91.31,5-.74,50.35-7.77,78.24-24.16a10.28,10.28,0,0,1,10.42,17.72c-33,19.4-84.17,26.58-86.33,26.87l-.95.09C140.93,163.08,139.66,163.11,138.41,163.11Z"/><path class="cls-2" d="M204.94,44.52c2.94,8.17,5.32,17.39,4.61,27.34a45.93,45.93,0,0,1-3.46,14.51,52.59,52.59,0,0,1-7.19,12.09,66.72,66.72,0,0,1-10.11,11.9,55.57,55.57,0,0,1-13.5,9.22c-9.4,4.55-19.73,6.07-29.45,5.84a12.21,12.21,0,0,1-1.74.26,6.31,6.31,0,0,1-1,0l-.74,0-1.41-.14c-.82-.15-1.44-.3-2.17-.47s-1.14-.39-1.73-.56a38.1,38.1,0,0,1-5.64-2.62,69.45,69.45,0,0,1-9.19-6.1A89.38,89.38,0,0,1,107,100.67a69,69,0,0,1-10.75-19,51.65,51.65,0,0,1-3-22.32,65.48,65.48,0,0,1,4.32-17.06l0-.06,0-.09c.38-1,.82-2,1.27-3C102.73,32.61,113.22,16,133.59,8c23.27-9.21,53.68-15.86,93,12-2.76-1.32-82.83-39-115.16,24.85A76.8,76.8,0,0,0,109,52.22l-.85,4.2a33.52,33.52,0,0,0-.47,4c-.64,10.69,4.26,21.34,11.75,30.09a72.6,72.6,0,0,0,12.8,11.78,53.46,53.46,0,0,0,7.11,4.35,23.32,23.32,0,0,0,3.23,1.35l.52.14,0,0a2.08,2.08,0,0,0-.47,0,5.69,5.69,0,0,0-1.12.24,5.62,5.62,0,0,0-2.26,1.14l4.2-1.32,1.47-.44c.91,0,1.85.06,2.76.06a45.66,45.66,0,0,0,20-4.11,42,42,0,0,0,16.74-15.24l.24-.32.26-.36A30.51,30.51,0,0,0,192,70.6c.47-5.85-.86-12.22-3.12-18.68-4.64-5.72-9.42-10.63-14.68-13.56s-11.45-4-18.12-3.29a21.2,21.2,0,0,0-10.27,7.13,33.66,33.66,0,0,0-4,6.26,39.88,39.88,0,0,0-2.84,7.22c-1.44,4.93-1.68,9.69-.33,12.51a10.12,10.12,0,0,0,3.12,3.9,19.89,19.89,0,0,0,5.08,2.79,19.86,19.86,0,0,0,6.43.18,11.42,11.42,0,0,0,5.4-2.26c3.26-2.38,6-7.11,7.84-12.6v-.06a8.82,8.82,0,0,1,16.71,5.64l0,.06a57,57,0,0,1-5,11,35.06,35.06,0,0,1-9,10A29.22,29.22,0,0,1,156,92.47a38.52,38.52,0,0,1-13.18-.35l-.7-.15-.65-.23a39.35,39.35,0,0,1-10.69-5.82,28.11,28.11,0,0,1-8.37-10.74,29.77,29.77,0,0,1-2.32-12.92A46.93,46.93,0,0,1,122,50.84a56.12,56.12,0,0,1,4.06-10.28,51.25,51.25,0,0,1,6.1-9.54A38.94,38.94,0,0,1,152,17.89l.71-.18.55-.08a53.49,53.49,0,0,1,15,.23A45,45,0,0,1,182.8,23a56.29,56.29,0,0,1,11.69,8.9,108.13,108.13,0,0,1,9,10.1l.91,1.14Z"/><path class="cls-1" d="M293.13,212.46A44,44,0,0,1,269.22,205a35,35,0,0,1-15-23.55,43.41,43.41,0,0,1,1.75-23.33c4.68-12.47,14-19.9,26.65-23,13.67-3.33,26.81-1.44,39.31,5.06,1.34.7,1.46,1.36,1,2.68q-2.22,6.59-4.18,13.25c-.37,1.23-.72,1.37-1.83.76a43.26,43.26,0,0,0-22-5.54c-12,.26-20.66,8.77-20.95,20.83-.21,8.94,3.11,16,11.33,20.12,5.56,2.82,11.53,2.83,17.52,1.84A42.4,42.4,0,0,0,317,189.13c1.05-.6,1.38-.44,1.74.72,1.42,4.65,2.93,9.27,4.47,13.89.32.94.16,1.35-.75,1.84C314.24,210,304.71,212.45,293.13,212.46Z"/><path class="cls-1" d="M372,162.84c0-2.74,0-5,0-7.35,0-1,.26-1.3,1.27-1.29,5.29,0,10.58.07,15.87,0,1.55,0,1.3.9,1.3,1.8v35.93c0,5.87,0,11.74,0,17.61,0,1.21-.32,1.58-1.56,1.57q-7.67-.1-15.34,0c-1.19,0-1.48-.39-1.45-1.5.07-2.3,0-4.6,0-7.4a25.37,25.37,0,0,1-9.56,7.95c-11.52,5.43-24.5,1-30.33-10.53-3.41-6.72-4.28-13.89-3.56-21.32a31.33,31.33,0,0,1,5.61-15.87,22.89,22.89,0,0,1,36.84-.6C371.29,162.05,371.48,162.25,372,162.84Zm0,19.94a12.83,12.83,0,0,0-.4-4.15,11.78,11.78,0,0,0-11.3-9.77c-6.07-.14-10.5,3.24-12.07,9.18A19.1,19.1,0,0,0,348,186c1.31,8.55,10.32,13.17,17.77,9C370.43,192.31,371.84,187.83,372,182.78Z"/><path class="cls-1" d="M456.39,182.91c0-3.89,0-7.79,0-11.68,0-1.08-.34-1.4-1.39-1.38-2.44.07-4.89,0-7.33,0-1,0-1.45-.16-1.44-1.31q.11-6.54,0-13.08c0-1.17.46-1.32,1.44-1.3,2.38.05,4.77,0,7.15,0,1.2,0,1.59-.29,1.57-1.54-.07-4.47,0-8.95-.05-13.42,0-1.14.32-1.48,1.46-1.47q7.77.09,15.52,0c1.17,0,1.5.36,1.48,1.48,0,4.41,0,8.83-.05,13.25,0,1.41.43,1.73,1.76,1.71,4.77-.08,9.54,0,14.3-.06,1.22,0,1.58.31,1.55,1.54q-.11,6.36,0,12.73c0,1.17-.37,1.45-1.48,1.44-4.89-.06-9.77,0-14.65-.05-1.15,0-1.48.34-1.47,1.47,0,6.1,0,12.21,0,18.31.05,4.7,2.17,6.72,6.87,6.79a32.09,32.09,0,0,0,9.59-1.46c.93-.27,1.37-.34,1.36.85,0,4.48,0,9,0,13.43,0,.75-.19,1.21-.94,1.41-7.35,1.91-14.73,2.72-22.16.53-8-2.37-12.86-8.72-13.08-17.11-.1-3.72,0-7.44,0-11.16Z"/><path class="cls-1" d="M421.13,162.12a27.53,27.53,0,0,1,8.31-6.67,25.81,25.81,0,0,1,12.45-2.69c1.14,0,1.31.46,1.3,1.45,0,5.18-.07,10.35,0,15.52,0,1.45-.38,1.7-1.75,1.48a21.87,21.87,0,0,0-11.82,1.07c-5.32,2.17-8.26,6.22-8.41,11.9-.21,8.36-.12,16.73-.07,25.1,0,1.48-.42,1.84-1.84,1.81-5.06-.08-10.11-.06-15.17,0-1.11,0-1.48-.25-1.48-1.43q.06-27,0-54.05c0-1,.19-1.42,1.32-1.41q7.85.09,15.7,0c1.17,0,1.49.37,1.45,1.48C421.07,157.64,421.13,159.62,421.13,162.12Z"/><path class="cls-1" d="M323.36,78.89c-2.93,16-5.81,31-8.57,45.86-.43,2.31-1.05,3-2.82,2.47-5.24-1.68-10.45-3.23-15.62-5-1-.35-1.52-.91-1.85-2.47-5.92-27.71-11.86-54.11-17.92-78.69-.13-.51-.2-1-.33-1.73,6.47.81,12.87,1.57,19.28,2.15,1.06.1,1.06,1.11,1.22,2q4.13,22.56,8.23,46.24a9,9,0,0,0,.87,3.42c1.59-8.07,3.14-16,4.69-24.11,1.52-7.89,3.06-15.85,4.52-23.93.26-1.45.68-1.87,1.69-1.78,5,.44,10,.82,15,.93,1.38,0,1.77.91,2.05,2.66q4,25,8.06,50.54a3.5,3.5,0,0,0,.64,2c3.18-16.83,6.37-33.83,9.39-51,.46-2.59,1.13-3.38,2.86-3.28,5.74.34,11.49.31,17.36.33a53.17,53.17,0,0,1-1.44,7.41c-5.83,26.77-11.83,53.27-17.85,79.19-.51,2.23-1.17,2.93-2.8,2.69q-8.32-1.29-16.6-2.54c-1.59-.25-2-1.26-2.26-3.29q-3.65-24.34-7.33-48.13C323.78,80.41,323.64,80,323.36,78.89Z"/><path class="cls-1" d="M487,47.4c4-6.51,8.49-10.51,13.85-12.69,9.47-3.77,18.23-1.1,22.51,5.46,2.48,3.85,3.12,8.43,3,13.52-.36,11.25-.8,22.53-1.17,33.78a2.75,2.75,0,0,1-1.38,2.61q-6.86,4.83-14,9.39c-1.21.77-1.35.27-1.34-1,.15-11.47.28-22.91.33-34.33,0-5.31-1.61-9.09-6-10-7.26-1.67-15.57,5.62-15.6,17.14-.06,12.74.08,25.43.22,38.1,0,1.94-.29,2.72-1.81,3.4-4.8,2.14-9.67,4.31-14.59,6.34-1.11.46-1.58.38-1.61-1.45q-.6-54-1.31-107.92c0-1.7.3-2.19,1.53-2.17,5.17.07,10.34,0,15.5-.09,1.4,0,1.63.59,1.63,2.2,0,11.56.13,23.13.2,34.7C487,45.11,487,45.92,487,47.4Z"/><path class="cls-1" d="M433.05,132.83c-8.63,1.62-17.1.75-25.17-3.91-1.16-.67-1.54-1.26-1.09-3.28,1.31-5.83,2.48-11.71,3.64-17.58.31-1.59.59-2.16,1.77-1.48a33.72,33.72,0,0,0,21.13,4.59,11,11,0,0,0,6.07-2.6,6.33,6.33,0,0,0,2.29-5c0-2.34-1-3.47-2.34-4.07-3.42-1.53-7.1-1.38-10.72-1.88-4-.54-7.95-1.17-11.68-3.4-6.78-4-9.74-12.37-9.11-24,.73-13.59,6.08-22.65,15.32-26.45,10.9-4.52,21.48-2.4,31.85,1.89.77.32.85.78.58,1.77-1.43,5.37-2.91,10.8-4.24,16.34-.43,1.81-1,1.24-1.73.95a32.6,32.6,0,0,0-17.29-2.45,8.74,8.74,0,0,0-4.59,2.07,5.77,5.77,0,0,0-1.81,4.46,4,4,0,0,0,1.93,3.69c3,1.89,6.25,2,9.42,2.5a57.11,57.11,0,0,1,11,2.48c10.46,3.84,12.94,14.74,10,28.87-2.3,11-8,17.83-15,22.34A29.46,29.46,0,0,1,433.05,132.83Z"/><path class="cls-1" d="M257.08,68.69c0,3.67-.07,7.31,0,11,.13,4.68,2.08,7.94,5.87,9.81a20.74,20.74,0,0,0,9.8,2.14c1,0,1.52.06,1.48,1.86-.12,5.64-.13,11.33-.16,17,0,1-.08,1.73-.93,1.62-7.42-.84-14.67-4-21.79-11.22S240.12,84.36,239.8,75.74c-.27-7.88-.41-15.69-.5-23.49,0-1.66-.45-2.24-1.9-2.6-2.15-.53-4.33-1.37-6.47-2-1-.29-1.39-.63-1.41-1.75-.1-4.25-.27-8.53-.47-12.81-.05-.94.19-1.25,1.18-1,2.38.52,4.76.85,7.15,1.37,1.18.26,1.54,0,1.5-1.36-.17-4.76-.19-9.5-.35-14.24,0-1.22.3-1.54,1.44-1.48,5.18.31,10.36.57,15.55.71,1.19,0,1.49.51,1.48,1.84,0,5.25.06,10.53,0,15.78,0,1.7.45,2.12,1.76,2.29,4.72.62,9.45,1.39,14.2,1.92,1.23.14,1.56.63,1.52,2.21-.12,5.43-.18,10.87-.13,16.32,0,1.76-.42,2-1.67,1.73-4.76-1.15-9.51-2.2-14.22-3.49-1.13-.31-1.44,0-1.42,1.39.07,3.89,0,7.76,0,11.64Z"/><path class="cls-1" d="M397,90.54c.08,14.17.12,28.34.25,42.51,0,2-.19,2.92-1.73,3-5.33.18-10.67.41-16,.48-1.14,0-1.56-.36-1.56-2.27q0-43.23,0-86.48c0-1.89.39-2.3,1.51-2.28,5.28.06,10.55,0,15.82-.24,1.32-.06,1.55.67,1.55,2.51C396.8,62,396.9,76.27,397,90.54Z"/><circle class="cls-2" cx="387.08" cy="22.51" r="12.37"/><path class="cls-1" d="M274.05,235.64a7.89,7.89,0,0,1,3-2.94,8.84,8.84,0,0,1,8.73.21,7.22,7.22,0,0,1,2.92,3.59h-3.18a4.3,4.3,0,0,0-1.74-1.9,5.19,5.19,0,0,0-2.58-.63,5.65,5.65,0,0,0-2.86.72,5,5,0,0,0-2,2.07,7.28,7.28,0,0,0,0,6.27,5.11,5.11,0,0,0,2,2.08,5.66,5.66,0,0,0,2.86.73,5.19,5.19,0,0,0,2.58-.63,4.3,4.3,0,0,0,1.74-1.9h3.18a7.13,7.13,0,0,1-2.92,3.57,8.4,8.4,0,0,1-4.58,1.26,8.31,8.31,0,0,1-4.16-1.06,7.79,7.79,0,0,1-3-2.94,8.69,8.69,0,0,1,0-8.5Z"/><path class="cls-1" d="M291.7,238.13a5.85,5.85,0,0,1,5.23-3.14,5.65,5.65,0,0,1,2.64.59,5.42,5.42,0,0,1,1.8,1.48V235.2H304V248h-2.67v-1.91a5.19,5.19,0,0,1-1.83,1.51,5.6,5.6,0,0,1-2.65.61,5.67,5.67,0,0,1-3-.85A6,6,0,0,1,291.7,245a7.2,7.2,0,0,1-.8-3.45A7,7,0,0,1,291.7,238.13Zm9.12,1.16a3.85,3.85,0,0,0-1.42-1.49,3.77,3.77,0,0,0-1.91-.51,3.83,3.83,0,0,0-1.9.5,3.72,3.72,0,0,0-1.43,1.46,4.54,4.54,0,0,0-.55,2.29,4.68,4.68,0,0,0,.55,2.32,3.81,3.81,0,0,0,1.44,1.53,3.76,3.76,0,0,0,3.8,0,3.81,3.81,0,0,0,1.42-1.5,4.64,4.64,0,0,0,.55-2.31A4.58,4.58,0,0,0,300.82,239.29Z"/><path class="cls-1" d="M311.72,235.54A4.48,4.48,0,0,1,314,235v2.74h-.67a3.26,3.26,0,0,0-2.36.79,3.8,3.8,0,0,0-.8,2.74V248h-2.65V235.2h2.65v1.86A4.11,4.11,0,0,1,311.72,235.54Z"/><path class="cls-1" d="M319.53,237.36v7.08a1.36,1.36,0,0,0,.34,1,1.65,1.65,0,0,0,1.15.31h1.62V248h-2.09a4,4,0,0,1-2.74-.84,3.46,3.46,0,0,1-.95-2.72v-7.08h-1.51V235.2h1.51V232h2.67v3.18h3.11v2.16Z"/><path class="cls-1" d="M342.64,235.2,334.79,254h-2.74l2.6-6.22-5-12.59h2.95l3.6,9.76,3.74-9.76Z"/><path class="cls-1" d="M346.91,247.38a6,6,0,0,1-2.3-2.32,7,7,0,0,1-.83-3.47,6.78,6.78,0,0,1,.86-3.46,5.87,5.87,0,0,1,2.34-2.32,7.13,7.13,0,0,1,6.64,0,5.89,5.89,0,0,1,2.35,2.32,6.88,6.88,0,0,1,.86,3.46,6.73,6.73,0,0,1-.89,3.46,6,6,0,0,1-2.4,2.33,6.9,6.9,0,0,1-3.35.83A6.58,6.58,0,0,1,346.91,247.38Zm5.19-2a3.7,3.7,0,0,0,1.45-1.46,4.72,4.72,0,0,0,.56-2.37,4.87,4.87,0,0,0-.53-2.36,3.61,3.61,0,0,0-1.42-1.45,3.82,3.82,0,0,0-1.9-.49,3.76,3.76,0,0,0-1.9.49,3.46,3.46,0,0,0-1.38,1.45,5,5,0,0,0-.51,2.36,4.45,4.45,0,0,0,1.06,3.19,3.49,3.49,0,0,0,2.66,1.13A4,4,0,0,0,352.1,245.42Z"/><path class="cls-1" d="M371,235.2V248h-2.65v-1.51a4.34,4.34,0,0,1-1.63,1.24,5.25,5.25,0,0,1-2.15.45,5.85,5.85,0,0,1-2.71-.62A4.55,4.55,0,0,1,360,245.7a6,6,0,0,1-.68-3V235.2H362v7.13a3.73,3.73,0,0,0,.86,2.64,3,3,0,0,0,2.34.91,3.1,3.1,0,0,0,2.36-.91,3.69,3.69,0,0,0,.87-2.64V235.2Z"/><path class="cls-1" d="M378.71,235.54A4.54,4.54,0,0,1,381,235v2.74h-.67a3.26,3.26,0,0,0-2.36.79,3.8,3.8,0,0,0-.8,2.74V248h-2.65V235.2h2.65v1.86A4.16,4.16,0,0,1,378.71,235.54Z"/><path class="cls-1" d="M389.4,238.13a5.93,5.93,0,0,1,7.73-2.59,5.08,5.08,0,0,1,1.94,1.45v-6.18h2.67V248h-2.67v-1.93a4.86,4.86,0,0,1-1.8,1.53,5.53,5.53,0,0,1-2.64.61,5.77,5.77,0,0,1-3.05-.85A6,6,0,0,1,389.4,245a7.2,7.2,0,0,1-.8-3.45A7,7,0,0,1,389.4,238.13Zm9.12,1.16a3.85,3.85,0,0,0-1.42-1.49,3.77,3.77,0,0,0-1.91-.51,3.83,3.83,0,0,0-1.9.5,3.72,3.72,0,0,0-1.43,1.46,4.54,4.54,0,0,0-.55,2.29,4.68,4.68,0,0,0,.55,2.32,3.74,3.74,0,0,0,6.66,0,4.64,4.64,0,0,0,.55-2.31A4.58,4.58,0,0,0,398.52,239.29Z"/><path class="cls-1" d="M409.42,235.54a4.48,4.48,0,0,1,2.28-.55v2.74H411a3.26,3.26,0,0,0-2.36.79,3.8,3.8,0,0,0-.8,2.74V248h-2.64V235.2h2.64v1.86A4.11,4.11,0,0,1,409.42,235.54Z"/><path class="cls-1" d="M425.78,242.59H416a3.53,3.53,0,0,0,3.65,3.39,3.09,3.09,0,0,0,3-1.79h2.86a5.78,5.78,0,0,1-2.1,2.89,6.16,6.16,0,0,1-3.77,1.13,6.54,6.54,0,0,1-3.29-.83,5.85,5.85,0,0,1-2.28-2.32,7.09,7.09,0,0,1-.82-3.47,7.26,7.26,0,0,1,.8-3.47,5.63,5.63,0,0,1,2.25-2.31,6.64,6.64,0,0,1,3.34-.82,6.56,6.56,0,0,1,3.22.79,5.62,5.62,0,0,1,2.21,2.22,6.65,6.65,0,0,1,.79,3.29A8.56,8.56,0,0,1,425.78,242.59Zm-2.67-2.14a3,3,0,0,0-1.05-2.35,3.76,3.76,0,0,0-2.53-.88,3.42,3.42,0,0,0-2.35.87,3.68,3.68,0,0,0-1.16,2.36Z"/><path class="cls-1" d="M428.39,238.13a5.85,5.85,0,0,1,5.24-3.14,5.63,5.63,0,0,1,2.63.59,5.42,5.42,0,0,1,1.8,1.48V235.2h2.67V248h-2.67v-1.91a5.19,5.19,0,0,1-1.83,1.51,5.6,5.6,0,0,1-2.65.61,5.67,5.67,0,0,1-3-.85,6.07,6.07,0,0,1-2.17-2.37,7.2,7.2,0,0,1-.8-3.45A7,7,0,0,1,428.39,238.13Zm9.13,1.16a3.88,3.88,0,0,0-1.43-1.49,3.77,3.77,0,0,0-1.91-.51,3.83,3.83,0,0,0-1.9.5,3.72,3.72,0,0,0-1.43,1.46,4.64,4.64,0,0,0-.54,2.29,4.79,4.79,0,0,0,.54,2.32,3.75,3.75,0,0,0,6.67,0,4.75,4.75,0,0,0,.54-2.31A4.68,4.68,0,0,0,437.52,239.29Z"/><path class="cls-1" d="M462.41,235.62a4.49,4.49,0,0,1,1.88,1.86,6,6,0,0,1,.69,3V248h-2.63v-7.16a3.72,3.72,0,0,0-.85-2.63,3.47,3.47,0,0,0-4.71,0,3.68,3.68,0,0,0-.87,2.63V248H453.3v-7.16a3.72,3.72,0,0,0-.86-2.63,3.09,3.09,0,0,0-2.35-.92,3.13,3.13,0,0,0-2.36.92,3.68,3.68,0,0,0-.87,2.63V248h-2.64V235.2h2.64v1.46a4.64,4.64,0,0,1,1.65-1.23,5.32,5.32,0,0,1,2.14-.44,5.72,5.72,0,0,1,2.74.65,4.55,4.55,0,0,1,1.86,1.88,4.28,4.28,0,0,1,1.81-1.84,5.32,5.32,0,0,1,2.65-.69A5.72,5.72,0,0,1,462.41,235.62Z"/><path class="cls-1" d="M470.28,247.66a4.78,4.78,0,0,1-1.89-1.49,3.69,3.69,0,0,1-.74-2.1h2.74a1.84,1.84,0,0,0,.78,1.36,2.77,2.77,0,0,0,1.77.55,3,3,0,0,0,1.73-.43,1.32,1.32,0,0,0,.62-1.11,1.12,1.12,0,0,0-.69-1.06,12,12,0,0,0-2.17-.77,19.44,19.44,0,0,1-2.34-.77,4,4,0,0,1-1.57-1.13,3,3,0,0,1-.66-2,3.13,3.13,0,0,1,.6-1.86,4,4,0,0,1,1.73-1.34,6.57,6.57,0,0,1,2.59-.49,5.32,5.32,0,0,1,3.52,1.11,3.93,3.93,0,0,1,1.43,3h-2.65a1.9,1.9,0,0,0-.7-1.37,2.58,2.58,0,0,0-1.69-.51,2.68,2.68,0,0,0-1.6.4,1.2,1.2,0,0,0-.56,1,1.12,1.12,0,0,0,.37.86,2.67,2.67,0,0,0,.91.55c.35.13.88.3,1.58.5a16.91,16.91,0,0,1,2.28.75,4.31,4.31,0,0,1,1.55,1.13,3,3,0,0,1,.67,2,3.31,3.31,0,0,1-.6,2,4.08,4.08,0,0,1-1.71,1.35,7,7,0,0,1-5.3-.06Z"/><text class="cls-3" transform="translate(494.43 24.48)">TM</text></g></g></svg>