<svg xmlns="http://www.w3.org/2000/svg" viewBox="0 0 530.08 254.02"><defs><style>.cls-1,.cls-2{fill:#0c0c0c;}.cls-2{font-size:24.15px;font-family:Poppins-SemiBold, Poppins;font-weight:600;}</style></defs><title>Fichier 36logo TWISH CART</title><g id="Calque_2" data-name="Calque 2"><g id="Calque_1-2" data-name="Calque 1"><path class="cls-1" d="M142.88,105.65l-.06,0h.06s0,0,.06,0Z" transform="translate(0 0)"/><ellipse class="cls-1" cx="97.92" cy="187.61" rx="20.79" ry="19.71" transform="translate(-90.09 284.77) rotate(-89.77)"/><ellipse class="cls-1" cx="189.08" cy="187.11" rx="20.79" ry="19.71" transform="translate(1.19 375.43) rotate(-89.77)"/><path class="cls-1" d="M138.41,163.11c-61.29,0-84.72-66-89.25-105.43-6.62-2.21-22.29,1.78-34.26,7.8A10.28,10.28,0,0,1,5.64,47.13C12.77,43.52,49.22,26.47,66.46,45l2.43,2.62.29,3.56c.31,3.82,8.48,93.62,71.65,91.32,5-.75,50.35-7.77,78.24-24.16a10.28,10.28,0,1,1,10.42,17.72c-33,19.39-84.17,26.57-86.33,26.87l-.95.08C140.93,163.09,139.66,163.11,138.41,163.11Z" transform="translate(0 0)"/><path class="cls-1" d="M204.94,44.52c2.94,8.17,5.32,17.39,4.61,27.34a45.93,45.93,0,0,1-3.46,14.51,52.59,52.59,0,0,1-7.19,12.09,66.72,66.72,0,0,1-10.11,11.9,55.57,55.57,0,0,1-13.5,9.22c-9.4,4.55-19.73,6.07-29.45,5.84a12.21,12.21,0,0,1-1.74.26,6.31,6.31,0,0,1-1,0l-.74,0-1.41-.14c-.82-.15-1.44-.3-2.17-.47s-1.14-.39-1.73-.56a38.1,38.1,0,0,1-5.64-2.62,69.45,69.45,0,0,1-9.19-6.1A89.38,89.38,0,0,1,107,100.67a69,69,0,0,1-10.75-19,51.65,51.65,0,0,1-3-22.32,65.48,65.48,0,0,1,4.32-17.06l0-.06,0-.09c.38-1,.82-2,1.27-3C102.73,32.61,113.22,16,133.59,8c23.27-9.21,53.68-15.86,93,12-2.76-1.32-82.83-39-115.16,24.85A76.8,76.8,0,0,0,109,52.22l-.85,4.2a33.52,33.52,0,0,0-.47,4c-.64,10.69,4.26,21.34,11.75,30.09a72.6,72.6,0,0,0,12.8,11.78,53.46,53.46,0,0,0,7.11,4.35,23.32,23.32,0,0,0,3.23,1.35l.52.14,0,0a2.08,2.08,0,0,0-.47,0,5.69,5.69,0,0,0-1.12.24,5.62,5.62,0,0,0-2.26,1.14l4.2-1.32,1.47-.44c.91,0,1.85.06,2.76.06a45.66,45.66,0,0,0,20-4.11,42,42,0,0,0,16.74-15.24l.24-.32.26-.36A30.51,30.51,0,0,0,192,70.6c.47-5.85-.86-12.22-3.12-18.68-4.64-5.72-9.42-10.63-14.68-13.56s-11.45-4-18.12-3.29a21.2,21.2,0,0,0-10.27,7.13,33.66,33.66,0,0,0-4,6.26,39.88,39.88,0,0,0-2.84,7.22c-1.44,4.93-1.68,9.69-.33,12.51a10.12,10.12,0,0,0,3.12,3.9,19.89,19.89,0,0,0,5.08,2.79,19.86,19.86,0,0,0,6.43.18,11.42,11.42,0,0,0,5.4-2.26c3.26-2.38,6-7.11,7.84-12.6v-.06a8.82,8.82,0,0,1,16.71,5.64l0,.06a57,57,0,0,1-5,11,35.06,35.06,0,0,1-9,10A29.22,29.22,0,0,1,156,92.47a38.52,38.52,0,0,1-13.18-.35l-.7-.15-.65-.23a39.35,39.35,0,0,1-10.69-5.82,28.11,28.11,0,0,1-8.37-10.74,29.77,29.77,0,0,1-2.32-12.92A46.93,46.93,0,0,1,122,50.84a56.12,56.12,0,0,1,4.06-10.28,51.25,51.25,0,0,1,6.1-9.54A38.94,38.94,0,0,1,152,17.89l.71-.18.55-.08a53.49,53.49,0,0,1,15,.23A45,45,0,0,1,182.8,23a56.29,56.29,0,0,1,11.69,8.9,108.13,108.13,0,0,1,9,10.1l.91,1.14Z" transform="translate(0 0)"/><path class="cls-1" d="M293.13,212.46a44,44,0,0,1-23.91-7.41,35,35,0,0,1-15-23.56,43.41,43.41,0,0,1,1.75-23.33c4.68-12.46,14-19.89,26.65-23,13.67-3.32,26.81-1.44,39.31,5.06,1.34.7,1.46,1.36,1,2.68q-2.22,6.59-4.18,13.25c-.37,1.23-.72,1.38-1.83.77a43.16,43.16,0,0,0-22-5.55c-12,.26-20.66,8.77-20.95,20.83-.21,8.94,3.11,16,11.33,20.13,5.56,2.81,11.53,2.83,17.52,1.83A42.4,42.4,0,0,0,317,189.13c1.05-.6,1.38-.44,1.74.73,1.42,4.65,2.93,9.27,4.47,13.88.32.95.16,1.35-.75,1.84C314.24,210,304.71,212.45,293.13,212.46Z" transform="translate(0 0)"/><path class="cls-1" d="M372,162.84c0-2.73,0-5,0-7.35,0-1,.26-1.3,1.27-1.29,5.29.05,10.58.07,15.87,0,1.55,0,1.3.89,1.3,1.79v35.93c0,5.87,0,11.74,0,17.61,0,1.21-.32,1.59-1.56,1.57q-7.67-.09-15.34,0c-1.19,0-1.48-.39-1.45-1.49.07-2.3,0-4.61,0-7.41a25.5,25.5,0,0,1-9.56,8c-11.52,5.42-24.5,1-30.33-10.54-3.41-6.72-4.28-13.88-3.56-21.32a31.26,31.26,0,0,1,5.61-15.86,22.89,22.89,0,0,1,36.84-.61C371.29,162.05,371.48,162.26,372,162.84Zm0,19.95a12.89,12.89,0,0,0-.4-4.16,11.8,11.8,0,0,0-11.3-9.77c-6.07-.13-10.5,3.24-12.07,9.18A19.1,19.1,0,0,0,348,186c1.31,8.55,10.32,13.18,17.77,9C370.43,192.31,371.84,187.83,372,182.79Z" transform="translate(0 0)"/><path class="cls-1" d="M456.39,182.92c0-3.9,0-7.79,0-11.69,0-1.08-.34-1.4-1.39-1.37-2.44.06-4.89,0-7.33,0-1,0-1.45-.17-1.44-1.32q.11-6.54,0-13.08c0-1.17.46-1.32,1.44-1.3,2.38.06,4.77,0,7.15.05,1.2,0,1.59-.3,1.57-1.54-.07-4.48,0-9-.05-13.43,0-1.14.32-1.48,1.46-1.47q7.77.09,15.52,0c1.17,0,1.5.36,1.48,1.48,0,4.42,0,8.84-.05,13.25,0,1.42.43,1.73,1.76,1.71,4.77-.08,9.54,0,14.3-.06,1.22,0,1.58.31,1.55,1.54q-.11,6.36,0,12.73c0,1.17-.37,1.45-1.48,1.44-4.89-.05-9.77,0-14.65-.05-1.15,0-1.48.34-1.47,1.47,0,6.11,0,12.21,0,18.31.05,4.7,2.17,6.73,6.87,6.8a32.1,32.1,0,0,0,9.59-1.47c.93-.27,1.37-.34,1.36.86,0,4.47,0,9,0,13.43,0,.74-.19,1.2-.94,1.4-7.35,1.91-14.73,2.72-22.16.53-8-2.36-12.86-8.71-13.08-17.1-.1-3.72,0-7.44,0-11.16Z" transform="translate(0 0)"/><path class="cls-1" d="M421.13,162.12a27.53,27.53,0,0,1,8.31-6.67,25.8,25.8,0,0,1,12.45-2.68c1.14,0,1.31.45,1.3,1.45,0,5.17-.07,10.34,0,15.51,0,1.45-.38,1.7-1.75,1.49a21.87,21.87,0,0,0-11.82,1.07c-5.32,2.17-8.26,6.21-8.41,11.89-.21,8.36-.12,16.74-.07,25.11,0,1.47-.42,1.83-1.84,1.81-5.06-.09-10.11-.07-15.17,0-1.11,0-1.48-.26-1.48-1.43q.06-27,0-54.06c0-1,.19-1.42,1.32-1.41,5.23.06,10.47.07,15.7,0,1.17,0,1.49.37,1.45,1.49C421.07,157.65,421.13,159.62,421.13,162.12Z" transform="translate(0 0)"/><path class="cls-1" d="M323.36,78.89c-2.93,16-5.81,31-8.57,45.86-.43,2.32-1.05,3-2.82,2.47-5.24-1.68-10.45-3.23-15.62-5-1-.34-1.51-.91-1.85-2.46-5.92-27.72-11.86-54.12-17.92-78.7-.13-.51-.2-1-.33-1.73,6.47.82,12.87,1.57,19.28,2.15,1.06.1,1.06,1.11,1.22,2Q300.88,66,305,89.73a9,9,0,0,0,.87,3.42c1.59-8.07,3.14-16,4.69-24.11,1.52-7.88,3.06-15.85,4.52-23.93.26-1.45.68-1.86,1.69-1.78,5,.44,10,.82,15,.93,1.38,0,1.77.92,2.05,2.67q4,25,8.06,50.54a3.47,3.47,0,0,0,.64,2c3.18-16.83,6.37-33.83,9.39-51,.46-2.59,1.13-3.38,2.86-3.28,5.74.34,11.49.31,17.36.34a53.75,53.75,0,0,1-1.44,7.41c-5.83,26.77-11.83,53.27-17.85,79.19-.51,2.22-1.17,2.92-2.8,2.68-5.55-.85-11.09-1.71-16.6-2.54-1.59-.24-2-1.26-2.26-3.29q-3.65-24.34-7.33-48.13C323.78,80.42,323.64,80,323.36,78.89Z" transform="translate(0 0)"/><path class="cls-1" d="M487,47.41c4-6.51,8.49-10.52,13.85-12.69,9.47-3.77,18.23-1.11,22.51,5.46,2.48,3.84,3.12,8.42,3,13.52-.36,11.24-.8,22.53-1.17,33.77a2.76,2.76,0,0,1-1.38,2.61q-6.86,4.85-14,9.39c-1.21.78-1.35.27-1.34-1,.15-11.47.28-22.92.33-34.34,0-5.31-1.61-9.09-6-10-7.26-1.67-15.57,5.61-15.6,17.13-.06,12.74.08,25.43.22,38.1,0,2-.29,2.72-1.81,3.4-4.8,2.14-9.67,4.31-14.59,6.34-1.11.47-1.58.38-1.61-1.44q-.6-54-1.31-107.93c0-1.7.3-2.19,1.53-2.17,5.17.07,10.34,0,15.5-.09,1.4,0,1.63.6,1.63,2.2,0,11.57.13,23.14.2,34.7C487,45.11,487,45.92,487,47.41Z" transform="translate(0 0)"/><path class="cls-1" d="M433.05,132.83c-8.63,1.62-17.1.75-25.17-3.9-1.16-.67-1.54-1.26-1.09-3.29,1.31-5.83,2.48-11.71,3.64-17.57.31-1.6.59-2.17,1.77-1.49a33.65,33.65,0,0,0,21.13,4.59,10.93,10.93,0,0,0,6.07-2.6,6.33,6.33,0,0,0,2.29-5c0-2.34-1-3.46-2.34-4.07-3.42-1.53-7.1-1.38-10.72-1.87-4-.55-7.95-1.18-11.68-3.4-6.78-4.06-9.74-12.38-9.11-24,.73-13.59,6.08-22.65,15.32-26.45,10.9-4.52,21.48-2.4,31.85,1.9.77.32.85.77.58,1.76-1.43,5.38-2.91,10.8-4.24,16.34-.43,1.82-1,1.24-1.73,1a32.6,32.6,0,0,0-17.29-2.46,8.76,8.76,0,0,0-4.59,2.08,5.75,5.75,0,0,0-1.81,4.45,4,4,0,0,0,1.93,3.69c3,1.9,6.25,2,9.42,2.5a58.65,58.65,0,0,1,11,2.48c10.46,3.85,12.94,14.74,10,28.87-2.3,11-8,17.84-15,22.34A29.46,29.46,0,0,1,433.05,132.83Z" transform="translate(0 0)"/><path class="cls-1" d="M257.08,68.69c0,3.67-.07,7.31,0,11,.13,4.67,2.08,7.93,5.87,9.81a21,21,0,0,0,9.8,2.14c1,0,1.52,0,1.48,1.85-.12,5.65-.13,11.33-.16,17,0,1-.08,1.73-.93,1.63-7.42-.85-14.67-4.06-21.79-11.23S240.12,84.37,239.8,75.74c-.27-7.88-.41-15.69-.5-23.49,0-1.65-.45-2.23-1.9-2.59-2.15-.54-4.33-1.38-6.47-2-1-.29-1.39-.64-1.41-1.75-.1-4.25-.27-8.54-.47-12.82-.05-.94.19-1.25,1.18-1,2.38.52,4.76.85,7.15,1.38,1.18.26,1.54-.06,1.5-1.37-.17-4.75-.19-9.49-.35-14.24,0-1.21.31-1.54,1.44-1.47,5.18.31,10.36.56,15.55.7,1.19,0,1.49.52,1.48,1.84,0,5.26.06,10.53,0,15.78,0,1.7.45,2.12,1.76,2.29,4.72.62,9.45,1.39,14.2,1.92,1.23.14,1.56.63,1.52,2.21-.12,5.43-.18,10.87-.13,16.32,0,1.77-.42,2-1.67,1.73-4.76-1.15-9.51-2.2-14.22-3.48-1.13-.31-1.44,0-1.42,1.39.07,3.89,0,7.76,0,11.64Z" transform="translate(0 0)"/><path class="cls-1" d="M397,90.54c.08,14.17.12,28.34.25,42.51,0,2-.19,2.92-1.73,3-5.33.18-10.67.4-16,.48-1.14,0-1.56-.37-1.56-2.28q0-43.23,0-86.47c0-1.89.39-2.3,1.51-2.29,5.28.06,10.55,0,15.82-.24,1.32-.06,1.55.67,1.55,2.52C396.8,62,396.9,76.28,397,90.54Z" transform="translate(0 0)"/><circle class="cls-1" cx="387.08" cy="22.51" r="12.37"/><path class="cls-1" d="M274.05,235.65a7.75,7.75,0,0,1,3-2.94,8.78,8.78,0,0,1,8.73.21,7.17,7.17,0,0,1,2.92,3.59h-3.18a4.27,4.27,0,0,0-1.74-1.91,5.19,5.19,0,0,0-2.58-.63,5.65,5.65,0,0,0-2.86.72,5,5,0,0,0-2,2.07,7.28,7.28,0,0,0,0,6.27,5.11,5.11,0,0,0,2,2.08,5.56,5.56,0,0,0,2.86.73,5.19,5.19,0,0,0,2.58-.63,4.25,4.25,0,0,0,1.74-1.9h3.18a7.15,7.15,0,0,1-2.92,3.58,8.48,8.48,0,0,1-4.58,1.25,8.31,8.31,0,0,1-4.16-1.06,7.83,7.83,0,0,1-3-2.93,8.69,8.69,0,0,1,0-8.5Z" transform="translate(0 0)"/><path class="cls-1" d="M291.7,238.13a5.81,5.81,0,0,1,5.23-3.13,5.53,5.53,0,0,1,2.64.59,5.28,5.28,0,0,1,1.8,1.47v-1.85H304V248h-2.67v-1.9a5.42,5.42,0,0,1-1.83,1.51,5.71,5.71,0,0,1-2.65.6,5.58,5.58,0,0,1-3-.85A5.86,5.86,0,0,1,291.7,245a7.19,7.19,0,0,1-.8-3.44A7,7,0,0,1,291.7,238.13Zm9.12,1.16a3.82,3.82,0,0,0-1.42-1.48,3.77,3.77,0,0,0-1.91-.51,3.72,3.72,0,0,0-3.33,2,4.49,4.49,0,0,0-.55,2.29,4.71,4.71,0,0,0,.55,2.32,3.84,3.84,0,0,0,1.44,1.52,3.66,3.66,0,0,0,1.89.52,3.77,3.77,0,0,0,1.91-.51,3.81,3.81,0,0,0,1.42-1.5,4.64,4.64,0,0,0,.55-2.31A4.58,4.58,0,0,0,300.82,239.29Z" transform="translate(0 0)"/><path class="cls-1" d="M311.72,235.54A4.58,4.58,0,0,1,314,235v2.74h-.67a3.22,3.22,0,0,0-2.36.79,3.78,3.78,0,0,0-.8,2.74V248h-2.65V235.21h2.65v1.85A4.18,4.18,0,0,1,311.72,235.54Z" transform="translate(0 0)"/><path class="cls-1" d="M319.53,237.36v7.09a1.33,1.33,0,0,0,.34,1,1.65,1.65,0,0,0,1.15.32h1.62V248h-2.09a4.08,4.08,0,0,1-2.74-.83,3.48,3.48,0,0,1-.95-2.72v-7.09h-1.51v-2.15h1.51V232h2.67v3.19h3.11v2.15Z" transform="translate(0 0)"/><path class="cls-1" d="M342.64,235.21,334.79,254h-2.74l2.6-6.23-5-12.58h2.95l3.6,9.75,3.74-9.75Z" transform="translate(0 0)"/><path class="cls-1" d="M346.91,247.39a6,6,0,0,1-2.3-2.33,7,7,0,0,1-.83-3.47,6.81,6.81,0,0,1,.86-3.46,5.87,5.87,0,0,1,2.34-2.32,7.21,7.21,0,0,1,6.64,0,5.89,5.89,0,0,1,2.35,2.32,6.91,6.91,0,0,1,.86,3.46,6.7,6.7,0,0,1-.89,3.46,6,6,0,0,1-2.4,2.34,6.9,6.9,0,0,1-3.35.82A6.57,6.57,0,0,1,346.91,247.39Zm5.19-2a3.64,3.64,0,0,0,1.45-1.46,4.72,4.72,0,0,0,.56-2.37,4.9,4.9,0,0,0-.53-2.36,3.67,3.67,0,0,0-1.42-1.45,3.91,3.91,0,0,0-1.9-.48,3.86,3.86,0,0,0-1.9.48,3.52,3.52,0,0,0-1.38,1.45,5,5,0,0,0-.51,2.36,4.5,4.5,0,0,0,1.06,3.2,3.48,3.48,0,0,0,2.66,1.12A3.85,3.85,0,0,0,352.1,245.42Z" transform="translate(0 0)"/><path class="cls-1" d="M371,235.21V248h-2.65v-1.51a4.24,4.24,0,0,1-1.63,1.24,5.1,5.1,0,0,1-2.15.46,5.73,5.73,0,0,1-2.71-.63A4.55,4.55,0,0,1,360,245.7a6,6,0,0,1-.68-3v-7.52H362v7.12a3.73,3.73,0,0,0,.86,2.64,3,3,0,0,0,2.34.92,3.11,3.11,0,0,0,2.36-.92,3.69,3.69,0,0,0,.87-2.64v-7.12Z" transform="translate(0 0)"/><path class="cls-1" d="M378.71,235.54A4.64,4.64,0,0,1,381,235v2.74h-.67a3.22,3.22,0,0,0-2.36.79,3.78,3.78,0,0,0-.8,2.74V248h-2.65V235.21h2.65v1.85A4.23,4.23,0,0,1,378.71,235.54Z" transform="translate(0 0)"/><path class="cls-1" d="M389.4,238.13a5.82,5.82,0,0,1,5.26-3.13,6.05,6.05,0,0,1,2.47.54,5.19,5.19,0,0,1,1.94,1.45v-6.17h2.67V248h-2.67v-1.93a5,5,0,0,1-1.8,1.54,6,6,0,0,1-5.69-.25A5.89,5.89,0,0,1,389.4,245a7.19,7.19,0,0,1-.8-3.44A7,7,0,0,1,389.4,238.13Zm9.12,1.16a3.82,3.82,0,0,0-1.42-1.48,3.77,3.77,0,0,0-1.91-.51,3.72,3.72,0,0,0-3.33,2,4.49,4.49,0,0,0-.55,2.29,4.71,4.71,0,0,0,.55,2.32,3.84,3.84,0,0,0,1.44,1.52,3.69,3.69,0,0,0,1.89.52,3.77,3.77,0,0,0,1.91-.51,3.81,3.81,0,0,0,1.42-1.5,4.64,4.64,0,0,0,.55-2.31A4.58,4.58,0,0,0,398.52,239.29Z" transform="translate(0 0)"/><path class="cls-1" d="M409.42,235.54a4.58,4.58,0,0,1,2.28-.54v2.74H411a3.22,3.22,0,0,0-2.36.79,3.78,3.78,0,0,0-.8,2.74V248h-2.64V235.21h2.64v1.85A4.18,4.18,0,0,1,409.42,235.54Z" transform="translate(0 0)"/><path class="cls-1" d="M425.78,242.59H416a3.53,3.53,0,0,0,3.65,3.39,3.07,3.07,0,0,0,3-1.79h2.86a5.78,5.78,0,0,1-2.1,2.89,6.09,6.09,0,0,1-3.77,1.13,6.53,6.53,0,0,1-3.29-.82,5.88,5.88,0,0,1-2.28-2.33,7.06,7.06,0,0,1-.82-3.47,7.31,7.31,0,0,1,.8-3.47,5.63,5.63,0,0,1,2.25-2.31,6.74,6.74,0,0,1,3.34-.81,6.46,6.46,0,0,1,3.22.79,5.53,5.53,0,0,1,2.21,2.21,6.67,6.67,0,0,1,.79,3.29A8.56,8.56,0,0,1,425.78,242.59Zm-2.67-2.14a3,3,0,0,0-1.05-2.34,3.71,3.71,0,0,0-2.53-.88,3.42,3.42,0,0,0-2.35.87,3.65,3.65,0,0,0-1.16,2.35Z" transform="translate(0 0)"/><path class="cls-1" d="M428.39,238.13a5.81,5.81,0,0,1,5.24-3.13,5.52,5.52,0,0,1,2.63.59,5.28,5.28,0,0,1,1.8,1.47v-1.85h2.67V248h-2.67v-1.9a5.42,5.42,0,0,1-1.83,1.51,5.71,5.71,0,0,1-2.65.6,5.58,5.58,0,0,1-3-.85,5.93,5.93,0,0,1-2.17-2.37,7.19,7.19,0,0,1-.8-3.44A7,7,0,0,1,428.39,238.13Zm9.13,1.16a3.85,3.85,0,0,0-1.43-1.48,3.77,3.77,0,0,0-1.91-.51,3.72,3.72,0,0,0-3.33,2,4.59,4.59,0,0,0-.54,2.29,4.82,4.82,0,0,0,.54,2.32,3.84,3.84,0,0,0,1.44,1.52,3.69,3.69,0,0,0,1.89.52,3.77,3.77,0,0,0,1.91-.51,3.84,3.84,0,0,0,1.43-1.5,4.75,4.75,0,0,0,.54-2.31A4.68,4.68,0,0,0,437.52,239.29Z" transform="translate(0 0)"/><path class="cls-1" d="M462.41,235.62a4.49,4.49,0,0,1,1.88,1.86,6,6,0,0,1,.69,3V248h-2.63v-7.15a3.73,3.73,0,0,0-.85-2.64,3.5,3.5,0,0,0-4.71,0,3.69,3.69,0,0,0-.87,2.64V248H453.3v-7.15a3.73,3.73,0,0,0-.86-2.64,3.08,3.08,0,0,0-2.35-.91,3.12,3.12,0,0,0-2.36.91,3.69,3.69,0,0,0-.87,2.64V248h-2.64V235.21h2.64v1.46a4.42,4.42,0,0,1,1.65-1.23,5.16,5.16,0,0,1,2.14-.44,5.6,5.6,0,0,1,2.74.65,4.5,4.5,0,0,1,1.86,1.88,4.3,4.3,0,0,1,1.81-1.85,5.31,5.31,0,0,1,2.65-.68A5.84,5.84,0,0,1,462.41,235.62Z" transform="translate(0 0)"/><path class="cls-1" d="M470.28,247.66a4.76,4.76,0,0,1-1.89-1.48,3.74,3.74,0,0,1-.74-2.1h2.74a1.87,1.87,0,0,0,.78,1.36,2.83,2.83,0,0,0,1.77.54,3,3,0,0,0,1.73-.43,1.29,1.29,0,0,0,.62-1.1,1.13,1.13,0,0,0-.69-1.07,12.88,12.88,0,0,0-2.17-.77,19.64,19.64,0,0,1-2.34-.76,4.1,4.1,0,0,1-1.57-1.14,3,3,0,0,1-.66-2,3.16,3.16,0,0,1,.6-1.87,4,4,0,0,1,1.73-1.34,6.57,6.57,0,0,1,2.59-.48,5.32,5.32,0,0,1,3.52,1.1,4,4,0,0,1,1.43,3h-2.65a1.88,1.88,0,0,0-.7-1.37,2.58,2.58,0,0,0-1.69-.51,2.76,2.76,0,0,0-1.6.39,1.2,1.2,0,0,0-.56,1,1.1,1.1,0,0,0,.37.85,2.52,2.52,0,0,0,.91.55c.35.13.88.3,1.58.5a18.46,18.46,0,0,1,2.28.75,4.43,4.43,0,0,1,1.55,1.13,3,3,0,0,1,.67,2,3.36,3.36,0,0,1-.6,2,4.06,4.06,0,0,1-1.71,1.34,6.3,6.3,0,0,1-2.59.49A6.37,6.37,0,0,1,470.28,247.66Z" transform="translate(0 0)"/><text class="cls-2" transform="translate(494.43 24.48)">TM</text></g></g></svg>