<svg xmlns="http://www.w3.org/2000/svg" viewBox="0 0 165.94 147.44"><defs><style>.cls-1{fill:#48036d;}.cls-2{fill:#fcfcfc;}.cls-3{fill:#fdb813;}</style></defs><title>Fichier 29logo TWISH CART</title><g id="Calque_2" data-name="Calque 2"><g id="Calque_1-2" data-name="Calque 1"><path class="cls-1" d="M101.08,74.74l0,0h0l0,0Z"/><ellipse class="cls-2" cx="69.28" cy="132.73" rx="14.71" ry="13.95" transform="translate(-63.73 201.46) rotate(-89.77)"/><ellipse class="cls-2" cx="133.77" cy="132.38" rx="14.71" ry="13.95" transform="translate(0.85 265.6) rotate(-89.77)"/><path class="cls-2" d="M97.92,115.4C54.56,115.4,38,68.72,34.78,40.81,30.1,39.24,19,42.07,10.54,46.32A7.27,7.27,0,0,1,4,33.34c5-2.55,30.83-14.61,43-1.49l1.72,1.85.2,2.52c.22,2.71,6,66.23,50.69,64.6,3.58-.52,35.63-5.49,55.36-17.09a7.27,7.27,0,0,1,7.37,12.54c-23.35,13.72-59.55,18.8-61.08,19l-.67.06C99.7,115.38,98.81,115.4,97.92,115.4Z"/><path class="cls-3" d="M145,31.5c2.07,5.78,3.76,12.3,3.26,19.34a32.66,32.66,0,0,1-2.45,10.27,37.19,37.19,0,0,1-5.09,8.55,47.35,47.35,0,0,1-7.15,8.42A39.3,39.3,0,0,1,124,84.6a45.27,45.27,0,0,1-20.84,4.13,7.82,7.82,0,0,1-1.23.19,4.72,4.72,0,0,1-.74,0l-.52,0-1-.1c-.58-.11-1-.21-1.54-.34s-.81-.27-1.22-.39a26.55,26.55,0,0,1-4-1.85,48.58,48.58,0,0,1-6.5-4.32,62.86,62.86,0,0,1-10.74-10.7,48.78,48.78,0,0,1-7.61-13.44A36.78,36.78,0,0,1,65.94,42,46.68,46.68,0,0,1,69,29.93h0l0-.1c.27-.73.58-1.45.89-2.16,2.75-4.58,10.17-16.32,24.58-22,16.46-6.51,38-11.22,65.77,8.52-2-.94-58.61-27.59-81.48,17.57-.68,1.73-1.16,3.47-1.66,5.22l-.6,3a21.9,21.9,0,0,0-.33,2.84c-.46,7.56,3,15.1,8.3,21.3a51.88,51.88,0,0,0,9.06,8.33,37.48,37.48,0,0,0,5,3.07,15.54,15.54,0,0,0,2.28,1l.38.1,0,0a1.62,1.62,0,0,0-.34,0,3.78,3.78,0,0,0-.79.17,3.82,3.82,0,0,0-1.59.81l3-.94,1-.31c.65,0,1.31,0,2,0a32.23,32.23,0,0,0,14.12-2.91A29.59,29.59,0,0,0,130.42,62.6l.17-.23.19-.25a21.56,21.56,0,0,0,5-12.17,32.75,32.75,0,0,0-2.2-13.21c-3.28-4.05-6.67-7.52-10.38-9.6a21,21,0,0,0-12.82-2.33,15.05,15.05,0,0,0-7.27,5.05,23.78,23.78,0,0,0-2.83,4.43,27.63,27.63,0,0,0-2,5.11c-1,3.49-1.19,6.85-.23,8.85a7.16,7.16,0,0,0,2.2,2.76,14.16,14.16,0,0,0,3.6,2,14.08,14.08,0,0,0,4.54.13,8.14,8.14,0,0,0,3.83-1.6c2.3-1.68,4.23-5,5.54-8.91v-.05a6.24,6.24,0,0,1,11.82,4l0,0A39.37,39.37,0,0,1,126,54.37a24.75,24.75,0,0,1-6.34,7.11,20.69,20.69,0,0,1-9.3,4,27.31,27.31,0,0,1-9.33-.25l-.5-.11-.46-.16a27.88,27.88,0,0,1-7.56-4.12,19.86,19.86,0,0,1-5.92-7.6A21,21,0,0,1,85,44.05,33.78,33.78,0,0,1,86.3,36a40.3,40.3,0,0,1,2.87-7.27A35.82,35.82,0,0,1,93.49,22a27.58,27.58,0,0,1,14.06-9.29l.5-.12.4-.06a37.69,37.69,0,0,1,10.59.16,31.79,31.79,0,0,1,10.28,3.64,39.78,39.78,0,0,1,8.27,6.29,77.22,77.22,0,0,1,6.4,7.15l.64.81Z"/></g></g></svg>